<?xml version="1.0" standalone="no"?>
<!DOCTYPE svg PUBLIC "-//W3C//DTD SVG 20010904//EN"
 "http://www.w3.org/TR/2001/REC-SVG-20010904/DTD/svg10.dtd">
<svg version="1.0" xmlns="http://www.w3.org/2000/svg"
 width="700.000000pt" height="700.000000pt" viewBox="0 0 700.000000 700.000000"
 preserveAspectRatio="xMidYMid meet">
<metadata>
Created by potrace 1.11, written by Peter Selinger 2001-2013
</metadata>
<g transform="translate(0.000000,700.000000) scale(0.100000,-0.100000)"
fill="#000000" stroke="none">
<path d="M2671 5918 c-5 -13 -12 -31 -15 -40 -4 -14 -13 -16 -51 -11 l-45 5 0
-50 c0 -60 -13 -73 -74 -75 -37 -1 -51 4 -74 26 -34 33 -59 34 -103 4 -22 -15
-37 -35 -45 -62 l-11 -40 -96 0 -97 0 -39 -42 c-41 -46 -48 -48 -99 -34 -27 8
-34 7 -43 -10 -6 -11 -8 -37 -5 -57 3 -20 8 -57 11 -82 2 -25 8 -65 12 -90 12
-77 8 -146 -10 -165 -9 -9 -17 -19 -17 -23 0 -4 -15 -23 -33 -42 -18 -19 -42
-48 -52 -63 -17 -27 -17 -29 0 -61 32 -59 0 -85 -71 -59 -66 24 -71 25 -85 10
-22 -21 -50 -34 -88 -40 -51 -8 -55 -18 -37 -80 24 -81 43 -100 105 -103 36
-1 75 -13 128 -39 42 -20 97 -40 122 -44 64 -9 65 -31 4 -75 -64 -47 -175
-106 -243 -129 -76 -26 -275 -27 -340 -2 -99 38 -186 26 -212 -30 -7 -15 -23
-26 -42 -30 -76 -16 -91 -50 -60 -136 8 -24 18 -61 21 -82 3 -21 6 -46 7 -55
2 -9 0 -28 -4 -42 -6 -22 -12 -25 -56 -26 -27 0 -64 -4 -83 -8 -35 -8 -43 -22
-85 -138 -9 -25 -24 -49 -31 -52 -21 -8 -19 -20 10 -62 14 -20 25 -49 25 -63
0 -56 13 -59 87 -21 65 34 72 35 178 35 80 0 124 -5 162 -18 54 -19 93 -56 93
-88 0 -24 -16 -24 -29 0 -14 24 -49 30 -113 19 -58 -11 -92 -26 -125 -57 -12
-11 -37 -23 -55 -26 -24 -4 -50 -24 -94 -70 -62 -64 -62 -64 -115 -63 -63 2
-108 -18 -129 -57 -11 -21 -12 -33 -1 -68 7 -23 12 -50 12 -61 0 -28 -28 -53
-66 -60 -35 -7 -65 -39 -85 -90 -17 -44 13 -44 73 2 28 22 64 43 78 47 23 6
28 2 44 -32 24 -48 24 -130 0 -166 -17 -26 -17 -27 12 -38 54 -21 58 -26 60
-63 2 -51 8 -63 40 -80 71 -36 146 -18 196 47 36 47 39 98 7 132 -32 35 -59
33 -66 -5 -9 -42 -25 -53 -52 -34 -29 20 -28 32 4 45 26 9 26 10 9 29 -10 11
-36 25 -57 32 -43 13 -46 18 -20 41 30 28 98 46 194 53 93 6 154 26 194 62 32
29 108 87 136 105 35 22 55 22 68 -2 11 -21 53 -29 182 -35 66 -3 98 -16 98
-40 0 -22 40 -55 80 -66 67 -18 45 -69 -52 -116 -29 -15 -72 -40 -95 -57 -26
-18 -63 -33 -95 -38 -67 -11 -91 -35 -78 -81 13 -43 39 -70 62 -62 13 4 21 -1
27 -17 12 -33 3 -56 -35 -93 -27 -26 -34 -41 -34 -70 0 -44 -8 -60 -70 -146
-59 -82 -63 -94 -39 -116 27 -24 25 -62 -4 -75 -28 -13 -53 -52 -70 -111 -25
-84 -7 -99 42 -38 27 34 78 71 96 70 21 -1 25 3 25 24 0 39 46 69 95 61 39 -5
42 -4 56 27 l14 33 111 0 c82 0 115 4 128 14 13 11 41 14 107 12 51 -1 97 3
109 9 28 15 140 38 220 46 36 3 91 9 122 13 79 10 178 5 208 -11 43 -22 105
-70 123 -94 17 -23 17 -24 0 -24 -10 0 -42 11 -71 25 -62 29 -102 32 -102 10
0 -8 9 -15 20 -15 36 0 88 -27 106 -55 18 -27 17 -28 -5 -46 -28 -23 -49 -24
-70 -5 -28 25 -54 23 -61 -4 -26 -96 167 -160 335 -113 91 26 123 15 139 -47
9 -35 35 -61 86 -88 69 -35 227 -194 283 -284 37 -60 58 -221 37 -296 -15 -56
-48 -93 -117 -129 -58 -31 -78 -37 -163 -49 -25 -3 -524 -8 -1110 -10 -586 -2
-1128 -5 -1205 -8 -117 -3 -598 -15 -792 -20 l-53 -1 0 -102 0 -103 3500 0
3501 0 -3 107 -3 107 -60 3 c-33 1 -647 5 -1365 7 -1310 5 -1527 8 -1608 27
-52 11 -127 49 -163 81 -59 52 -73 113 -71 313 2 231 17 362 49 438 9 20 22
37 29 37 8 0 23 -19 35 -41 l21 -42 34 36 c27 27 51 40 105 54 72 18 97 36
130 91 22 38 61 57 139 68 154 20 303 -9 297 -58 -1 -15 4 -23 18 -26 34 -7
44 -21 35 -51 -8 -30 11 -90 30 -92 5 -1 15 -2 21 -3 7 -1 13 19 14 46 6 83
25 90 58 21 18 -39 27 -48 50 -50 15 -1 41 -13 58 -27 38 -33 45 -32 102 4
113 72 152 81 194 46 19 -16 48 -26 87 -31 32 -4 71 -14 85 -21 14 -8 30 -14
34 -14 17 0 97 -64 97 -77 0 -20 70 -85 175 -163 105 -78 125 -107 125 -183 0
-41 19 -75 33 -61 7 7 14 -21 22 -88 3 -26 8 -54 11 -62 8 -22 65 -45 115 -47
87 -3 88 -3 46 37 l-38 37 25 26 c14 15 26 36 26 48 0 22 42 73 61 73 7 0 26
-10 43 -23 42 -32 66 -39 82 -26 15 12 9 32 -23 75 -12 17 -20 33 -17 36 10
11 99 -20 274 -95 96 -41 194 -78 217 -82 29 -4 44 -13 48 -26 7 -23 15 -24
40 -5 27 19 13 43 -40 66 -25 11 -45 26 -45 33 0 19 30 44 63 52 37 10 97 67
97 92 0 12 -11 45 -25 75 -22 48 -30 96 -26 151 0 10 13 29 27 42 l26 24 -19
33 c-25 43 -71 58 -200 64 -127 5 -153 14 -153 51 0 16 27 82 60 148 69 139
83 185 54 185 -11 0 -37 14 -58 32 -35 29 -41 30 -70 20 -18 -7 -38 -12 -44
-12 -16 0 -14 31 3 54 8 11 15 23 15 28 0 4 -34 5 -75 1 -109 -9 -185 24 -185
81 0 8 17 32 39 54 84 88 95 155 52 296 -34 108 -37 148 -16 186 19 34 19 64
0 56 -25 -9 -61 10 -110 59 -29 28 -55 45 -70 45 -50 0 -66 68 -26 114 19 22
78 49 91 41 5 -3 16 -27 25 -54 30 -92 71 -95 59 -5 l-6 54 47 20 c37 16 45
23 36 34 -12 14 -63 31 -128 41 -24 4 -43 10 -43 13 0 4 10 18 21 32 11 14 31
42 45 63 l25 38 -22 18 c-28 23 -18 59 19 67 15 3 37 10 50 15 33 13 14 42
-37 59 -47 15 -50 22 -18 39 76 40 97 58 97 81 0 41 -144 144 -190 135 -65
-13 -129 83 -78 119 11 8 25 13 28 11 13 -8 31 21 24 38 -3 9 -14 19 -25 22
-26 8 -24 20 6 43 14 11 25 23 25 27 0 4 -13 24 -28 44 -16 20 -40 58 -53 86
-21 44 -67 96 -128 147 -11 9 -18 26 -16 36 2 10 6 43 10 73 4 30 9 57 12 62
9 15 -13 6 -57 -23 -56 -37 -104 -54 -134 -46 -22 5 -23 8 -15 58 9 58 6 65
-31 70 -39 5 -50 17 -50 53 0 27 -4 34 -22 37 -40 6 -124 -11 -179 -37 -62
-28 -72 -24 -88 39 -11 45 -26 56 -93 72 -55 13 -20 75 53 94 49 13 76 8 109
-20 14 -12 32 -18 47 -16 68 13 78 26 42 57 -11 10 -47 53 -79 95 -34 46 -73
86 -96 99 -23 12 -48 38 -60 61 -14 26 -27 38 -39 37 -24 -2 -71 22 -113 58
-28 25 -113 75 -119 70 -14 -7 -35 4 -44 23 -22 47 -200 114 -247 93 -19 -9
-28 -6 -57 23 -32 31 -37 32 -59 21 -21 -12 -31 -9 -94 29 l-70 41 -42 -21
c-44 -22 -52 -22 -110 3 -32 14 -39 14 -76 -3 -52 -24 -68 -27 -229 -46 -59
-6 -95 -24 -101 -49 -3 -13 -19 -29 -36 -36 -34 -14 -48 -43 -48 -99 0 -47
-15 -90 -32 -90 -6 0 -22 10 -35 21 -24 24 -49 26 -171 17 -89 -6 -108 6 -152
92 -16 32 -38 61 -47 64 -10 3 -40 3 -68 0 -104 -12 -99 -14 -100 33 -1 29 -8
50 -24 67 -12 13 -28 41 -35 61 l-13 37 -12 -30 c-19 -45 -93 -112 -127 -115
-25 -2 -29 2 -32 27 -2 19 4 36 19 52 15 16 23 37 23 66 1 42 0 43 -32 45 -18
1 -52 13 -76 27 -57 33 -103 34 -115 4z m94 -458 c12 -20 -7 -59 -36 -70 -57
-24 -71 7 -26 58 21 23 51 29 62 12z m644 -74 c22 -40 18 -102 -8 -130 -23
-25 -45 -25 -55 -1 -4 13 19 128 30 146 9 15 20 10 33 -15z m-1182 -70 c28 -4
59 -13 67 -19 15 -11 15 -14 1 -34 -17 -24 -46 -26 -67 -5 -7 7 -35 12 -64 12
-55 0 -75 17 -50 43 14 14 32 14 113 3z m930 -559 c23 -16 33 -30 33 -49 0
-75 -101 -76 -159 -2 -24 30 -27 54 -8 73 17 18 93 6 134 -22z m-167 -152 c36
-19 37 -26 6 -60 -37 -40 -60 -30 -64 28 -3 53 7 59 58 32z m-792 -242 c41
-27 64 -50 55 -56 -16 -10 -86 3 -104 19 -47 42 -6 72 49 37z m2190 -37 c5
-26 -24 -46 -67 -46 -72 0 -82 35 -15 56 52 16 78 13 82 -10z m953 -67 c14
-27 3 -89 -16 -89 -14 0 -45 48 -45 69 0 12 28 41 40 41 5 0 14 -9 21 -21z
m-2994 -61 c15 -17 15 -18 -2 -18 -37 0 -150 23 -160 32 -11 10 12 28 50 39
22 7 85 -23 112 -53z m1901 -37 c23 -30 48 -39 127 -46 56 -4 55 -4 55 -15 0
-23 -52 -43 -112 -41 -111 2 -187 -57 -172 -134 3 -19 2 -36 -2 -36 -89 -13
-124 7 -124 70 0 87 124 247 183 235 12 -2 32 -17 45 -33z m-1178 -31 c24 -13
60 -72 60 -98 0 -28 -36 -48 -56 -31 -18 14 -43 97 -36 121 5 21 7 21 32 8z
m2471 -20 c25 -14 24 -25 -3 -50 -24 -22 -55 -19 -75 9 -13 19 -8 29 21 41 28
12 34 12 57 0z m-1979 -35 c-3 -28 -33 -65 -52 -65 -5 0 -16 7 -24 16 -12 11
-13 20 -6 34 18 33 42 51 64 48 17 -2 20 -9 18 -33z m285 -44 c23 -2 24 -40 3
-103 -27 -80 -63 -128 -96 -128 -33 0 -30 20 11 72 19 24 41 55 49 69 14 25
14 29 -4 52 -26 33 -25 48 3 43 12 -3 27 -5 34 -5z m-1537 -28 c0 -60 98 -144
169 -145 43 0 71 -18 71 -45 0 -28 39 -70 106 -113 l66 -44 -42 -12 c-53 -16
-86 -46 -101 -93 -19 -58 -45 -104 -80 -139 l-32 -33 -32 36 c-31 34 -53 40
-122 38 -21 -1 -15 17 17 54 17 18 30 40 30 48 0 8 -17 30 -37 48 l-37 34 23
52 c12 28 19 56 15 62 -17 28 -191 -26 -240 -75 l-31 -31 4 35 c3 22 -1 42
-10 55 -14 18 -13 23 5 53 11 18 26 62 34 99 7 37 19 70 26 75 7 4 39 13 70
19 31 6 69 19 85 29 38 25 43 24 43 -7z m846 -474 c28 -17 34 -18 34 -5 0 24
20 29 40 11 25 -22 15 -52 -21 -59 -26 -5 -29 -9 -25 -40 3 -19 11 -45 18 -58
23 -41 100 -142 144 -188 63 -67 79 -91 92 -136 18 -62 15 -71 -23 -84 -20 -7
-42 -24 -52 -40 -9 -16 -23 -32 -31 -35 -13 -5 -54 30 -83 72 -20 29 -38 31
-87 9 -38 -17 -45 -18 -69 -5 -27 15 -117 118 -109 126 4 5 61 10 122 12 41 1
70 28 89 81 30 84 16 122 -40 113 -41 -7 -52 10 -24 35 l21 20 -37 12 c-51 17
-66 44 -54 99 19 86 36 97 95 60z m2746 -170 c-8 -54 -73 -81 -80 -33 -2 15 7
28 30 43 40 25 54 22 50 -10z m-2463 -4 c47 -24 76 -119 50 -166 -10 -20 -11
-20 -31 -2 -22 19 -88 148 -88 170 0 17 34 16 69 -2z m-674 -76 c11 -17 -23
-46 -68 -57 -48 -13 -68 -2 -51 26 22 35 104 57 119 31z m-940 -61 c43 -23 49
-64 8 -53 -32 8 -105 59 -97 67 7 8 64 -2 89 -14z m1079 -54 c9 -8 16 -18 17
-22 0 -4 2 -17 5 -30 2 -13 -1 -32 -6 -43 -9 -16 -14 -17 -33 -8 -33 18 -57
49 -57 75 0 39 46 56 74 28z m3054 -81 c30 -19 66 -95 49 -105 -13 -8 -39 5
-87 44 -20 15 -48 29 -63 30 -35 3 -52 21 -35 36 31 24 94 22 136 -5z m-2660
-219 c7 -44 11 -46 42 -24 59 42 82 5 71 -110 -1 -8 -5 -21 -10 -29 -8 -12
-15 -8 -36 17 -15 18 -30 32 -34 32 -4 0 -21 -11 -37 -25 -16 -14 -37 -25 -47
-25 -24 0 -50 61 -51 120 -1 43 0 45 39 56 49 15 59 13 63 -12z m1918 -3 c5
-1 18 -7 28 -14 17 -13 17 -15 -3 -52 -24 -45 -28 -122 -8 -149 18 -25 67 -14
108 25 l32 30 -36 33 c-42 38 -50 76 -16 76 12 0 47 -21 78 -46 31 -25 73 -55
93 -65 l38 -20 -16 -32 c-10 -18 -16 -51 -15 -79 2 -76 -35 -82 -116 -18 -31
24 -49 26 -57 5 -10 -28 12 -62 56 -86 52 -29 85 -86 68 -118 -10 -20 -11 -20
-73 8 -116 52 -257 123 -262 130 -2 5 7 23 20 41 24 33 32 83 17 107 -4 6 -19
14 -33 18 -20 5 -37 25 -65 78 -32 59 -45 72 -71 79 -104 27 51 75 177 56 25
-4 50 -7 56 -7z m-3269 -57 l72 -36 -46 -56 c-25 -32 -49 -58 -53 -60 -4 -1
-6 13 -5 32 3 47 -14 68 -66 80 -34 9 -45 16 -47 34 -5 33 16 55 47 47 14 -3
58 -22 98 -41z m2891 -22 c26 -15 30 -62 6 -86 -22 -22 -29 -20 -71 17 -40 37
-40 61 -1 76 27 10 36 9 66 -7z m-3164 -33 c39 -31 32 -64 -13 -65 -48 -1 -75
27 -59 61 14 31 37 32 72 4z m4012 -34 c20 -23 41 -35 57 -35 32 0 67 -35 67
-67 0 -13 1 -26 3 -30 5 -17 -44 -13 -89 8 -70 32 -127 75 -148 111 -19 30
-18 31 0 45 28 21 73 8 110 -32z m-1186 -124 c28 -21 28 -42 -1 -82 -13 -19
-18 -42 -17 -80 2 -62 -10 -85 -61 -119 -53 -35 -66 -34 -100 9 -17 21 -43 42
-58 45 -46 12 -173 111 -173 135 0 15 49 61 74 71 13 5 51 9 84 9 39 -1 75 6
103 19 51 24 111 21 149 -7z m1221 -77 c45 -22 99 -83 99 -110 0 -20 24 -31
50 -24 31 8 97 -6 129 -27 23 -15 24 -16 6 -29 -10 -8 -38 -14 -60 -14 -25 0
-60 -10 -88 -24 -83 -44 -167 -40 -167 8 0 47 -20 76 -74 111 -53 34 -82 78
-70 109 15 39 98 39 175 0z m415 -168 c9 -24 -15 -58 -39 -54 -27 4 -52 49
-34 60 20 13 67 9 73 -6z m-7 -138 c-36 -50 -141 -79 -155 -43 -10 25 14 44
64 51 26 4 58 12 72 19 36 19 44 8 19 -27z m-2686 -31 c12 -36 -7 -75 -39 -83
-42 -11 -145 61 -128 88 11 18 50 27 103 25 50 -2 55 -4 64 -30z m2962 -258
c4 -5 9 -30 11 -55 5 -65 31 -102 94 -134 l55 -29 -72 -1 c-84 0 -119 11 -151
48 -67 76 -74 150 -19 172 31 12 75 12 82 -1z m-20 -299 c75 -40 87 -52 79
-73 -7 -20 -23 -13 -91 39 -25 19 -53 34 -63 34 -10 0 -22 5 -25 10 -10 16 15
42 29 31 6 -4 38 -23 71 -41z"/>
<path d="M623 2870 c-35 -21 -43 -44 -18 -54 35 -13 97 37 80 64 -9 15 -26 12
-62 -10z"/>
<path d="M937 2701 c3 -11 14 -27 24 -37 20 -18 26 -54 9 -54 -11 0 -38 -51
-35 -65 2 -5 6 -22 9 -38 7 -32 39 -67 61 -67 19 0 55 40 55 61 0 10 -11 39
-25 65 -14 26 -25 57 -25 70 0 26 -45 84 -65 84 -8 0 -11 -7 -8 -19z"/>
</g>
</svg>
